<svg width="133" height="138" viewBox="0 0 133 138" fill="none" xmlns="http://www.w3.org/2000/svg">
<g clip-path="url(#clip0_1138_275)">
<path fill-rule="evenodd" clip-rule="evenodd" d="M71.7982 62.5805C71.54 61.6894 70.8255 60.9305 69.7681 60.6984L56.9992 57.8953C54.9434 57.4448 53.126 59.3339 53.702 61.3219L55.4399 67.3202L71.7982 62.5805Z" fill="#191716"/>
<path d="M61.7939 74.4517L71.0863 65.2564C71.437 64.9173 71.6885 64.4889 71.8135 64.0173C71.9386 63.5457 71.9324 63.0489 71.7957 62.5806L55.4375 67.3203L57.1755 73.3186C57.7517 75.3074 60.2974 75.9315 61.7939 74.4517Z" fill="#191716"/>
</g>
<path d="M28.925 37.3494L19.7645 26.7572L22.8225 24.1125C26.7275 20.7353 30.1684 20.7678 33.1453 24.2099C34.5592 25.8448 35.1546 27.628 34.9315 29.5596C34.7041 31.4864 33.6795 33.2376 31.8575 34.8133L28.925 37.3494ZM22.8055 26.7353L29.3916 34.3507L30.7951 33.137C32.0311 32.068 32.6974 30.8978 32.7942 29.6263C32.8959 28.3505 32.4102 27.0922 31.337 25.8512C29.1948 23.3743 26.841 23.2452 24.2754 25.464L22.8055 26.7353Z" fill="#191716"/>
<path d="M54.3605 22.7816L51.7928 23.6632L48.4599 20.8426C48.157 20.5818 47.874 20.3692 47.6111 20.2048C47.3522 20.0321 47.1019 19.9046 46.8603 19.8224C46.6248 19.738 46.3846 19.7 46.1397 19.7084C45.8948 19.7168 45.6338 19.7685 45.3567 19.8637L44.47 20.1681L46.3156 25.5437L44.1266 26.2953L39.5791 13.0503L43.9387 11.5535C44.5606 11.3399 45.1586 11.2172 45.7327 11.1853C46.3069 11.1534 46.8397 11.2217 47.3312 11.3902C47.8206 11.5526 48.2503 11.8215 48.6201 12.197C48.994 12.5643 49.2835 13.0465 49.4885 13.6438C49.6492 14.1118 49.7264 14.5671 49.7201 15.0099C49.7178 15.4443 49.6402 15.8599 49.4873 16.2565C49.3384 16.6449 49.1193 17.0093 48.83 17.3495C48.5469 17.6876 48.2007 17.9924 47.7913 18.2637L47.804 18.3006C48.0907 18.3537 48.3518 18.4326 48.5875 18.5376C48.821 18.6364 49.0474 18.7445 49.2667 18.8619C49.486 18.9794 49.7107 19.1225 49.9407 19.2913C50.1748 19.4519 50.437 19.6441 50.7272 19.868L54.3605 22.7816ZM42.3801 14.0813L43.8579 18.3855L45.6867 17.7576C46.0254 17.6413 46.3184 17.4822 46.5657 17.2803C46.8192 17.0762 47.0168 16.8397 47.1585 16.5708C47.3002 16.3019 47.3809 16.0057 47.4006 15.6823C47.4204 15.3589 47.37 15.0217 47.2495 14.6707C47.0317 14.0365 46.6614 13.6095 46.1386 13.3898C45.6157 13.1701 44.9787 13.1892 44.2274 13.4471L42.3801 14.0813Z" fill="#191716"/>
<path d="M68.3904 22.2714L60.5296 22.1823L60.6885 8.17925L68.2368 8.26489L68.2144 10.2374L62.9902 10.1781L62.9452 14.1427L67.7593 14.1974L67.7371 16.1601L62.9229 16.1055L62.8759 20.2459L68.4127 20.3087L68.3904 22.2714Z" fill="#191716"/>
<path d="M75.0246 22.8152L75.8073 20.5543C75.9464 20.8092 76.1289 21.0583 76.3546 21.3018C76.5865 21.5475 76.8412 21.7769 77.1187 21.9901C77.3984 22.1972 77.6855 22.3827 77.9801 22.5467C78.2747 22.7107 78.5543 22.8385 78.8188 22.9301C79.7417 23.2495 80.4809 23.3332 81.0365 23.1811C81.5982 23.0311 81.9803 22.6639 82.1826 22.0794C82.2912 21.7657 82.3081 21.4684 82.2331 21.1875C82.1664 20.9026 82.0307 20.6179 81.826 20.3335C81.6213 20.0491 81.3643 19.7568 81.0548 19.4567C80.7536 19.1527 80.4268 18.8329 80.0745 18.4973C79.7084 18.1019 79.3742 17.714 79.0718 17.3338C78.7695 16.9535 78.5248 16.5657 78.3379 16.1702C78.1593 15.7708 78.0518 15.3547 78.0157 14.9219C77.9856 14.4912 78.058 14.0237 78.2326 13.5192C78.4477 12.8978 78.7725 12.4075 79.207 12.048C79.6497 11.6846 80.1499 11.434 80.7073 11.2964C81.2731 11.1547 81.8727 11.1142 82.5062 11.1751C83.1418 11.2298 83.7641 11.3625 84.3731 11.5734C85.7574 12.0526 86.712 12.5588 87.237 13.092L86.4862 15.2606C85.9231 14.4594 85.0509 13.8543 83.8697 13.4453C83.5437 13.3324 83.207 13.2503 82.8596 13.1989C82.5184 13.1497 82.1941 13.1511 81.8867 13.2031C81.5855 13.2573 81.3166 13.3675 81.0799 13.5336C80.8433 13.6996 80.6707 13.9396 80.562 14.2533C80.4598 14.5486 80.4329 14.8253 80.4814 15.0832C80.5299 15.3411 80.6402 15.5997 80.8122 15.8591C80.9903 16.1206 81.2188 16.396 81.4975 16.6854C81.7845 16.9708 82.1185 17.2897 82.4995 17.642C82.8778 18.0417 83.2242 18.4441 83.5386 18.8492C83.8593 19.2565 84.118 19.6733 84.3148 20.0997C84.5178 20.5282 84.6404 20.9703 84.6825 21.4258C84.7329 21.8773 84.6718 22.3522 84.4993 22.8505C84.2671 23.5211 83.9358 24.0402 83.5054 24.4079C83.0749 24.7756 82.5789 25.0241 82.0174 25.1535C81.462 25.2851 80.8636 25.3121 80.2221 25.2347C79.5806 25.1573 78.9277 25.0036 78.2633 24.7736C78.0418 24.6969 77.7744 24.5837 77.4611 24.4339C77.1519 24.2923 76.8398 24.1292 76.5248 23.9443C76.2077 23.7657 75.9145 23.578 75.645 23.3814C75.3754 23.1847 75.1686 22.996 75.0246 22.8152Z" fill="#191716"/>
<path d="M89.0038 28.7391L90.4617 26.842C90.5131 27.1278 90.6073 27.4219 90.7444 27.7243C90.8866 28.0307 91.0556 28.3289 91.2515 28.619C91.4512 28.9039 91.6649 29.1708 91.8925 29.4195C92.12 29.6683 92.3448 29.878 92.5668 30.0486C93.3411 30.6437 94.0159 30.957 94.591 30.9885C95.1714 31.0239 95.65 30.7965 96.0269 30.3061C96.2292 30.0428 96.3392 29.7661 96.357 29.4759C96.3838 29.1845 96.3452 28.8715 96.241 28.537C96.1369 28.2024 95.9855 27.8438 95.7869 27.4612C95.5973 27.0775 95.3886 26.6707 95.1605 26.2409C94.9384 25.75 94.7441 25.2763 94.5776 24.8199C94.411 24.3635 94.3017 23.9182 94.2495 23.4839C94.2064 23.0485 94.2362 22.6198 94.3388 22.1978C94.4466 21.7797 94.6631 21.3591 94.9884 20.9358C95.3891 20.4144 95.8524 20.052 96.3783 19.8485C96.9133 19.6439 97.467 19.5644 98.0394 19.6102C98.6209 19.6548 99.2025 19.8062 99.7842 20.0643C100.37 20.3173 100.918 20.6402 101.429 21.0329C102.591 21.9255 103.336 22.7078 103.665 23.3797L102.267 25.1993C101.986 24.2611 101.35 23.4111 100.359 22.6494C100.086 22.4391 99.7923 22.2547 99.479 22.096C99.1709 21.9414 98.8629 21.8401 98.5548 21.7922C98.2519 21.7483 97.962 21.7677 97.6849 21.8503C97.4079 21.933 97.1682 22.106 96.9659 22.3693C96.7755 22.6171 96.6624 22.871 96.6268 23.131C96.5912 23.391 96.614 23.6712 96.6951 23.9717C96.7814 24.2761 96.9109 24.6097 97.0838 24.9724C97.2657 25.3339 97.4816 25.7421 97.7315 26.1969C97.964 26.6957 98.1652 27.1871 98.3353 27.6709C98.5106 28.1587 98.6242 28.6359 98.676 29.1027C98.7329 29.5735 98.7093 30.0316 98.6051 30.477C98.5101 30.9212 98.3019 31.3524 97.9805 31.7705C97.5481 32.3332 97.0696 32.7208 96.5449 32.9334C96.0202 33.146 95.4711 33.2249 94.8975 33.1699C94.329 33.119 93.7528 32.9553 93.1687 32.6789C92.5847 32.4025 92.0139 32.0501 91.4564 31.6216C91.2706 31.4788 91.0528 31.2868 90.803 31.0455C90.5544 30.8134 90.31 30.5599 90.0697 30.2849C89.8255 30.0151 89.6066 29.7443 89.4132 29.4725C89.2197 29.2006 89.0833 28.9562 89.0038 28.7391Z" fill="#191716"/>
<path d="M122.385 52.4749L112.421 51.342L107.663 53.1448L106.84 50.9714L111.552 49.1859L118.35 41.8269L119.288 44.3017L114.648 49.005C114.592 49.0608 114.374 49.2478 113.993 49.5661L114.004 49.5935C114.219 49.5745 114.51 49.5792 114.876 49.6077L121.513 50.1736L122.385 52.4749Z" fill="#191716"/>
<path d="M110.135 69.2503C110.175 67.2325 110.862 65.6282 112.195 64.4373C113.528 63.2529 115.242 62.6818 117.338 62.724C119.59 62.7693 121.374 63.4239 122.69 64.6876C124.006 65.9513 124.643 67.6441 124.6 69.7661C124.56 71.7318 123.878 73.3005 122.552 74.4719C121.226 75.6499 119.512 76.2177 117.409 76.1754C115.124 76.1295 113.331 75.478 112.027 74.2211C110.724 72.9641 110.093 71.3072 110.135 69.2503ZM122.562 69.6079C122.588 68.3256 122.13 67.2712 121.19 66.4448C120.249 65.625 118.997 65.1993 117.435 65.1679C115.88 65.1366 114.619 65.5019 113.653 66.2639C112.687 67.0258 112.191 68.0382 112.165 69.301C112.139 70.6418 112.57 71.7087 113.459 72.5015C114.348 73.2943 115.606 73.707 117.233 73.7398C118.906 73.7734 120.206 73.4219 121.132 72.6852C122.059 71.955 122.535 70.9292 122.562 69.6079Z" fill="#191716"/>
<path d="M109.122 95.269C105.552 93.6204 104.547 91.1056 106.109 87.7248C107.604 84.4858 110.069 83.6592 113.503 85.245L121.279 88.8357L120.304 90.9458L112.963 87.5557C110.469 86.4039 108.774 86.7973 107.879 88.736C107.017 90.6037 107.788 92.0931 110.194 93.204L117.668 96.6554L116.693 98.7655L109.122 95.269Z" fill="#191716"/>
<path d="M91.3311 106.876L93.3066 105.014L97.5061 106.208C97.8897 106.321 98.2351 106.398 98.5425 106.439C98.8496 106.49 99.1301 106.503 99.3841 106.478C99.6334 106.458 99.8679 106.393 100.088 106.285C100.307 106.176 100.524 106.021 100.737 105.82L101.419 105.177L97.5207 101.041L99.2048 99.4539L108.81 109.644L105.456 112.806C104.978 113.257 104.483 113.615 103.974 113.881C103.464 114.147 102.95 114.305 102.433 114.354C101.92 114.408 101.418 114.34 100.926 114.15C100.434 113.97 99.9713 113.65 99.5381 113.191C99.1987 112.831 98.9406 112.448 98.7638 112.042C98.5867 111.645 98.486 111.234 98.4617 110.81C98.4371 110.395 98.4864 109.973 98.6096 109.543C98.7281 109.118 98.9179 108.698 99.1789 108.282L99.1521 108.254C98.8691 108.324 98.5986 108.359 98.3406 108.361C98.0871 108.367 97.8363 108.362 97.5881 108.346C97.3398 108.329 97.0761 108.291 96.7969 108.232C96.5175 108.183 96.1994 108.116 95.8426 108.031L91.3311 106.876ZM105.833 109.86L102.712 106.549L101.305 107.875C101.044 108.121 100.843 108.386 100.701 108.672C100.554 108.963 100.472 109.26 100.454 109.563C100.435 109.867 100.484 110.17 100.599 110.472C100.715 110.775 100.9 111.062 101.154 111.332C101.614 111.82 102.128 112.056 102.695 112.04C103.262 112.025 103.834 111.745 104.412 111.2L105.833 109.86Z" fill="#191716"/>
<path d="M68.0495 129.586L70.6031 114.927L73.1623 114.482L80.4317 127.431L77.9303 127.866L72.7026 117.991C72.5355 117.677 72.3846 117.303 72.2498 116.871L72.2113 116.878C72.2301 117.251 72.2057 117.662 72.1383 118.109L70.474 129.164L68.0495 129.586Z" fill="#191716"/>
<path d="M57.1157 114.95L59.4913 115.235L57.8225 129.139L55.447 128.854L57.1157 114.95Z" fill="#191716"/>
<path d="M49.5201 113.438L43.9224 126.274L39.8494 124.498C38.6081 123.957 37.7449 123.257 37.2596 122.4C36.7684 121.539 36.7127 120.673 37.0927 119.802C37.4101 119.074 37.8919 118.531 38.5379 118.173C39.1838 117.816 39.9203 117.682 40.7473 117.773L40.7629 117.737C39.9239 117.251 39.3628 116.615 39.0797 115.831C38.788 115.051 38.8347 114.219 39.2199 113.336C39.6987 112.238 40.5191 111.537 41.6811 111.234C42.8431 110.931 44.0835 111.067 45.4024 111.642L49.5201 113.438ZM42.5464 123.64L44.1391 119.987L42.7605 119.386C42.0206 119.064 41.3662 118.984 40.7975 119.148C40.2203 119.315 39.7925 119.718 39.514 120.357C39.0352 121.455 39.5298 122.324 40.9978 122.964L42.5464 123.64ZM44.8847 118.278L46.6569 114.214L44.8397 113.421C44.046 113.075 43.355 112.99 42.7665 113.167C42.1695 113.347 41.7305 113.759 41.4495 114.404C40.8691 115.735 41.501 116.802 43.345 117.606L44.8847 118.278Z" fill="#191716"/>
<path d="M28.915 100.012L34.6494 105.389L25.0701 115.604L19.5637 110.44L20.9131 109.001L24.7241 112.575L27.4362 109.683L23.9244 106.39L25.2671 104.958L28.7789 108.251L31.6113 105.231L27.5723 101.443L28.915 100.012Z" fill="#191716"/>
<path d="M14.8621 36.7169C9.04457 46.2657 6.03537 57.2605 6.17947 68.4409C6.32357 79.6214 9.61514 90.535 15.6769 99.9306L18.5094 98.1032C12.7911 89.2398 9.68596 78.9445 9.55002 68.3975C9.41408 57.8505 12.2528 47.4785 17.7408 38.4707L14.8621 36.7169Z" fill="#191716"/>
<defs>
<clipPath id="clip0_1138_275">
<rect width="21.5129" height="21.5129" fill="white" transform="translate(49 57.9868) rotate(-16.1587)"/>
</clipPath>
</defs>
</svg>
