<svg width="217" height="238" viewBox="0 0 217 238" fill="none" xmlns="http://www.w3.org/2000/svg">
<g clip-path="url(#clip0_1126_264)">
<path fill-rule="evenodd" clip-rule="evenodd" d="M110.341 114.415C109.66 113.315 108.416 112.563 106.909 112.647L88.707 113.662C85.7767 113.826 84.0425 117.044 85.5605 119.499L90.1406 126.906L110.341 114.415Z" fill="#F5B700"/>
<path opacity="1" d="M101.349 134.106L110.389 118.276C110.734 117.689 110.911 117.019 110.902 116.339C110.894 115.658 110.7 114.993 110.341 114.415L90.1406 126.906L94.7208 134.313C96.2394 136.769 99.8926 136.654 101.349 134.106Z" fill="#F564A9"/>
</g>
<path d="M27.2139 188.786C13.6231 175.195 4.76846 157.59 1.96035 138.576C-0.847751 119.562 2.53985 100.149 11.6219 83.2094L14.0525 84.5126C5.25033 100.93 1.96712 119.745 4.68869 138.173C7.41027 156.601 15.992 173.664 29.1641 186.836L27.2139 188.786Z" fill="#191716"/>
<path d="M22.0858 71.7408L26.2336 74.6705L24.8983 76.5609L13.46 68.4816L15.9109 65.0119C16.8386 63.6984 17.8637 62.8961 18.986 62.6048C20.1084 62.3135 21.2252 62.5604 22.3366 63.3454C23.448 64.1305 24.0907 65.1503 24.2646 66.405C24.4384 67.6596 24.0709 68.9304 23.1619 70.2173L22.0858 71.7408ZM16.3587 67.6955L20.5384 70.6478L21.406 69.4194C21.9807 68.6058 22.2295 67.8529 22.1524 67.1609C22.0754 66.4688 21.6939 65.8804 21.0079 65.3959C19.6625 64.4456 18.4377 64.7522 17.3334 66.3156L16.3587 67.6955Z" fill="#191716"/>
<path d="M38.9988 52.166C41.6526 55.0679 41.6054 57.7753 38.8574 60.2885C36.2246 62.6962 33.6319 62.5044 31.0792 59.7131L25.2993 53.3931L27.0145 51.8245L32.4714 57.7915C34.3255 59.8189 36.0404 60.112 37.6163 58.6709C39.1344 57.2825 38.9994 55.6107 37.2112 53.6553L31.6554 47.5803L33.3706 46.0117L38.9988 52.166Z" fill="#191716"/>
<path d="M59.1466 45.94L56.7905 47.2888L52.9867 45.1454C52.6401 44.9462 52.3222 44.7906 52.033 44.6785C51.7463 44.5576 51.4765 44.4795 51.2237 44.4442C50.9766 44.4056 50.7335 44.4135 50.4945 44.4678C50.2556 44.5221 50.0089 44.622 49.7547 44.7675L48.9411 45.2333L51.7647 50.1658L49.7561 51.3157L42.7988 39.1623L46.7991 36.8723C47.3698 36.5456 47.9341 36.3126 48.4919 36.1733C49.0498 36.034 49.586 36.0008 50.1004 36.0739C50.6116 36.1414 51.0842 36.3247 51.5181 36.624C51.9543 36.9143 52.3294 37.3335 52.6431 37.8816C52.8889 38.311 53.0504 38.7437 53.1274 39.1797C53.2069 39.6068 53.2088 40.0296 53.1332 40.4479C53.0601 40.8574 52.9134 41.2564 52.6933 41.645C52.4788 42.0304 52.196 42.3948 51.845 42.7382L51.8644 42.7721C52.1559 42.7703 52.4273 42.7987 52.6784 42.8575C52.9264 42.9106 53.1691 42.9742 53.4066 43.0483C53.644 43.1224 53.8916 43.2207 54.1493 43.3433C54.4094 43.457 54.7031 43.5964 55.0302 43.7617L59.1466 45.94ZM45.7438 39.6481L48.0047 43.5976L49.6828 42.6369C49.9935 42.459 50.2514 42.2477 50.4563 42.0028C50.6669 41.7548 50.8165 41.4854 50.9051 41.1946C50.9937 40.9038 51.0172 40.5977 50.9758 40.2764C50.9344 39.955 50.8215 39.6333 50.6371 39.3112C50.304 38.7293 49.86 38.3796 49.3051 38.2621C48.7503 38.1446 48.1282 38.2832 47.4389 38.6778L45.7438 39.6481Z" fill="#191716"/>
<path d="M72.7073 40.9623L65.2508 43.4524L60.8149 30.1696L67.975 27.7785L68.5999 29.6496L63.6443 31.3045L64.9002 35.0652L69.4667 33.5402L70.0885 35.402L65.522 36.927L66.8335 40.8544L72.0855 39.1005L72.7073 40.9623Z" fill="#191716"/>
<path d="M98.4865 37.9567L90.6254 38.0232L90.507 24.0198L98.0556 23.9559L98.0722 25.9285L92.8478 25.9727L92.8813 29.9374L97.6956 29.8967L97.7122 31.8595L92.8979 31.9002L92.933 36.0407L98.4699 35.9939L98.4865 37.9567Z" fill="#191716"/>
<path d="M105.493 37.9643L105.915 35.6093C106.092 35.8395 106.311 36.0573 106.572 36.2629C106.839 36.4695 107.126 36.6567 107.434 36.8242C107.742 36.9854 108.055 37.1242 108.371 37.2405C108.688 37.3568 108.984 37.4396 109.259 37.4891C110.22 37.6615 110.964 37.6295 111.489 37.3931C112.021 37.1577 112.341 36.7357 112.45 36.1269C112.509 35.8001 112.479 35.5038 112.362 35.2379C112.252 34.9668 112.073 34.7067 111.827 34.4574C111.581 34.2082 111.281 33.9594 110.929 33.711C110.584 33.4573 110.212 33.192 109.812 32.9152C109.389 32.5814 108.999 32.2501 108.641 31.9213C108.283 31.5925 107.981 31.2474 107.735 30.8857C107.497 30.5188 107.326 30.1244 107.223 29.7025C107.127 29.2817 107.126 28.8086 107.22 28.2831C107.336 27.6359 107.581 27.1011 107.954 26.6786C108.335 26.2509 108.791 25.9258 109.32 25.7033C109.857 25.4755 110.443 25.3425 111.078 25.3044C111.715 25.2598 112.35 25.2944 112.984 25.4083C114.426 25.6669 115.448 26.0189 116.049 26.4641L115.644 28.723C114.963 28.0188 114.008 27.5564 112.777 27.3356C112.438 27.2747 112.092 27.2458 111.741 27.2489C111.397 27.2532 111.076 27.3049 110.781 27.404C110.492 27.5043 110.243 27.6548 110.035 27.8556C109.827 28.0564 109.694 28.3202 109.635 28.647C109.58 28.9546 109.596 29.232 109.684 29.4793C109.772 29.7266 109.921 29.965 110.131 30.1945C110.348 30.4252 110.616 30.6618 110.937 30.9045C111.264 31.1419 111.644 31.4051 112.075 31.6941C112.511 32.0302 112.915 32.374 113.289 32.7255C113.669 33.078 113.989 33.4497 114.249 33.8404C114.516 34.2322 114.706 34.6499 114.818 35.0934C114.938 35.5316 114.952 36.0102 114.858 36.5292C114.733 37.2277 114.486 37.792 114.118 38.222C113.75 38.652 113.299 38.9745 112.764 39.1894C112.236 39.4055 111.649 39.5251 111.003 39.5482C110.357 39.5712 109.688 39.5206 108.996 39.3965C108.766 39.3551 108.484 39.2847 108.151 39.1853C107.824 39.0935 107.49 38.9807 107.15 38.847C106.809 38.7197 106.49 38.5798 106.194 38.4273C105.897 38.2749 105.663 38.1205 105.493 37.9643Z" fill="#191716"/>
<path d="M120.654 41.3176L121.505 39.0814C121.636 39.3403 121.811 39.5949 122.029 39.8451C122.254 40.0977 122.501 40.3347 122.772 40.5562C123.046 40.7716 123.327 40.9657 123.617 41.1385C123.906 41.3114 124.182 41.4475 124.443 41.5471C125.356 41.8943 126.092 42.0003 126.652 41.865C127.218 41.7321 127.611 41.3766 127.831 40.7985C127.949 40.4882 127.975 40.1915 127.909 39.9085C127.851 39.6217 127.724 39.3331 127.528 39.0426C127.332 38.7521 127.083 38.4522 126.783 38.1429C126.491 37.8299 126.174 37.5003 125.832 37.1543C125.478 36.748 125.156 36.3502 124.865 35.961C124.575 35.5718 124.342 35.1767 124.167 34.7758C124 34.3712 123.906 33.952 123.883 33.5183C123.866 33.0869 123.952 32.6218 124.142 32.1228C124.376 31.5082 124.715 31.0279 125.16 30.6818C125.614 30.3319 126.121 30.0965 126.683 29.9758C127.252 29.8512 127.853 29.8289 128.484 29.9089C129.118 29.9828 129.736 30.1343 130.338 30.3634C131.707 30.8843 132.646 31.4191 133.155 31.9679L132.339 34.1128C131.8 33.2949 130.947 32.6638 129.779 32.2193C129.456 32.0966 129.122 32.0043 128.776 31.9425C128.437 31.883 128.113 31.8746 127.804 31.9173C127.501 31.9624 127.229 32.0643 126.987 32.2232C126.746 32.3821 126.566 32.6167 126.448 32.927C126.337 33.2191 126.302 33.4948 126.342 33.754C126.383 34.0133 126.485 34.2751 126.649 34.5396C126.82 34.8063 127.04 35.0885 127.309 35.3862C127.588 35.6802 127.912 36.009 128.282 36.3727C128.648 36.7836 128.982 37.1963 129.284 37.6107C129.592 38.0275 129.838 38.4519 130.022 38.8841C130.212 39.3186 130.321 39.7641 130.35 40.2207C130.386 40.6735 130.311 41.1463 130.124 41.6392C129.871 42.3025 129.524 42.8113 129.083 43.1659C128.642 43.5204 128.138 43.7538 127.573 43.8662C127.014 43.9809 126.415 43.9899 125.776 43.8931C125.137 43.7964 124.489 43.623 123.832 43.373C123.613 43.2896 123.349 43.1684 123.041 43.0092C122.736 42.8584 122.429 42.6858 122.12 42.4916C121.808 42.3034 121.521 42.107 121.257 41.9023C120.994 41.6976 120.793 41.5027 120.654 41.3176Z" fill="#191716"/>
<path d="M141.895 52.3327L135.191 48.227L142.505 36.2847L148.943 40.2272L147.912 41.9094L143.457 39.1808L141.386 42.5619L145.492 45.0763L144.467 46.7503L140.361 44.2358L138.198 47.7669L142.92 50.6587L141.895 52.3327Z" fill="#191716"/>
<path d="M156.546 64.9466L154.713 63.189L157.011 51.1301C157.069 50.825 157.155 50.5331 157.269 50.2545L157.226 50.2139C157.057 50.4661 156.632 50.9469 155.951 51.6564L149.597 58.2813L147.976 56.7265L157.669 46.62L159.622 48.4925L157.331 60.2198C157.24 60.7097 157.169 61.0382 157.117 61.205L157.145 61.232C157.355 60.9192 157.767 60.4432 158.379 59.8042L164.626 53.2921L166.24 54.8401L156.546 64.9466Z" fill="#191716"/>
<path d="M167.708 79.3571C166.673 78.7741 165.725 77.8262 164.866 76.5134C163.754 74.8139 163.399 73.1009 163.802 71.3744C164.205 69.6479 165.277 68.2142 167.021 67.0732C168.894 65.8467 170.785 65.4301 172.692 65.8236C174.603 66.2225 176.134 67.3017 177.286 69.0612C178.027 70.1942 178.482 71.2391 178.649 72.1957L176.72 73.4579C176.672 72.3614 176.336 71.3365 175.712 70.3833C174.881 69.1141 173.801 68.3502 172.473 68.0916C171.147 67.8384 169.807 68.1558 168.45 69.0436C167.159 69.8886 166.37 70.9302 166.084 72.1683C165.803 73.4028 166.054 74.6193 166.839 75.8177C167.562 76.9235 168.451 77.7111 169.506 78.1804L167.708 79.3571Z" fill="#191716"/>
<path d="M173.574 93.8007L170.644 86.5059L183.638 81.2861L186.452 88.2909L184.622 89.0262L182.674 84.1781L178.995 85.6559L180.79 90.1234L178.968 90.8551L177.174 86.3876L173.332 87.931L175.395 93.069L173.574 93.8007Z" fill="#191716"/>
<path d="M190.165 119.708L189.914 115.692L177.906 116.441L177.762 114.121L189.77 113.372L189.52 109.366L191.489 109.244L192.134 119.585L190.165 119.708Z" fill="#191716"/>
<path d="M176.801 135.681L177.816 127.885L191.703 129.694L190.728 137.179L188.772 136.924L189.447 131.744L185.515 131.232L184.893 136.006L182.947 135.752L183.569 130.978L179.463 130.443L178.748 135.934L176.801 135.681Z" fill="#191716"/>
<path d="M172.577 152.479C172.398 151.304 172.561 149.974 173.065 148.488C173.717 146.565 174.848 145.229 176.456 144.482C178.063 143.735 179.854 143.697 181.827 144.366C183.947 145.086 185.441 146.318 186.306 148.062C187.17 149.813 187.264 151.683 186.588 153.675C186.153 154.957 185.61 155.959 184.96 156.68L182.777 155.94C183.611 155.226 184.211 154.329 184.577 153.25C185.064 151.814 185 150.493 184.385 149.287C183.768 148.088 182.691 147.227 181.156 146.706C179.695 146.211 178.389 146.231 177.237 146.769C176.091 147.308 175.289 148.256 174.828 149.612C174.404 150.864 174.331 152.049 174.612 153.169L172.577 152.479Z" fill="#191716"/>
<path d="M163.028 168.793L164.244 166.801L169.429 169.966L172.863 164.339L167.678 161.174L168.889 159.191L180.843 166.486L179.632 168.47L174.605 165.402L171.171 171.029L176.198 174.097L174.982 176.089L163.028 168.793Z" fill="#191716"/>
<path d="M149.718 183.564L151.515 181.77L163.522 184.328C163.825 184.393 164.115 184.486 164.391 184.605L164.433 184.564C164.184 184.389 163.713 183.953 163.018 183.258L156.533 176.761L158.123 175.174L168.016 185.085L166.102 186.996L154.427 184.452C153.939 184.35 153.612 184.271 153.447 184.216L153.419 184.244C153.727 184.46 154.194 184.882 154.82 185.509L161.195 191.895L159.612 193.475L149.718 183.564Z" fill="#191716"/>
<path d="M138.071 191.566C139.801 190.528 141.525 190.257 143.243 190.752C144.954 191.251 146.349 192.4 147.428 194.197C148.587 196.129 148.981 197.988 148.61 199.774C148.24 201.561 147.144 203 145.324 204.092C143.638 205.104 141.947 205.359 140.25 204.859C138.547 204.362 137.155 203.212 136.073 201.409C134.897 199.449 134.495 197.584 134.867 195.812C135.239 194.04 136.307 192.625 138.071 191.566ZM144.375 202.282C145.474 201.622 146.124 200.674 146.324 199.438C146.518 198.205 146.214 196.919 145.41 195.579C144.609 194.245 143.629 193.371 142.47 192.958C141.312 192.545 140.191 192.663 139.107 193.313C137.957 194.003 137.283 194.935 137.084 196.11C136.886 197.285 137.205 198.57 138.042 199.965C138.903 201.4 139.892 202.314 141.008 202.707C142.119 203.103 143.241 202.962 144.375 202.282Z" fill="#191716"/>
<path d="M117.823 200.794L125.155 198.273L129.709 211.516L127.511 212.271L123.596 200.885L118.461 202.65L117.823 200.794Z" fill="#191716"/>
<path d="M105.652 202.934C107.655 202.689 109.341 203.141 110.708 204.292C112.069 205.444 112.877 207.06 113.132 209.141C113.406 211.377 113.011 213.235 111.946 214.717C110.882 216.199 109.296 217.069 107.189 217.327C105.238 217.566 103.588 217.112 102.241 215.966C100.887 214.82 100.082 213.203 99.8265 211.116C99.5485 208.848 99.9394 206.98 100.999 205.512C102.059 204.044 103.61 203.185 105.652 202.934ZM107.057 215.287C108.33 215.131 109.309 214.529 109.994 213.481C110.673 212.433 110.917 211.134 110.727 209.583C110.538 208.039 109.997 206.842 109.106 205.994C108.215 205.145 107.143 204.798 105.889 204.952C104.558 205.115 103.563 205.693 102.904 206.685C102.245 207.678 102.015 208.982 102.213 210.597C102.416 212.258 102.948 213.495 103.809 214.307C104.663 215.121 105.746 215.448 107.057 215.287Z" fill="#191716"/>
<path d="M80.2209 203.664C81.7579 203.035 83.4162 202.82 85.1956 203.017C87.2533 203.246 88.8484 204.071 89.9809 205.494C91.1134 206.917 91.5626 208.683 91.3285 210.792C91.0893 212.947 90.1977 214.636 88.6535 215.86C87.1021 217.09 85.2523 217.585 83.104 217.347C81.5576 217.175 80.2821 216.804 79.2776 216.234L79.5416 213.856C80.5302 214.687 81.7622 215.184 83.2375 215.347C84.7193 215.512 85.99 215.158 87.0497 214.287C88.1028 213.415 88.7156 212.202 88.888 210.649C89.0654 209.051 88.7974 207.747 88.0841 206.738C87.3701 205.735 86.3142 205.156 84.9165 205.001C83.9589 204.894 83.1102 204.987 82.3704 205.278L82.003 208.588L84.9342 208.913L84.7188 210.854L79.4872 210.274L80.2209 203.664Z" fill="#191716"/>
<path d="M70.7222 200.188L73.0183 200.861L69.0823 214.3L66.7862 213.628L70.7222 200.188Z" fill="#191716"/>
<path d="M55.9413 194.131L63.0477 197.493L57.0597 210.152L50.2358 206.924L51.0793 205.141L55.8022 207.375L57.4975 203.791L53.1454 201.732L53.9847 199.958L58.3368 202.016L60.1073 198.273L55.102 195.906L55.9413 194.131Z" fill="#191716"/>
<path d="M49.6341 191.073L48.2288 193.01C48.1696 192.725 48.0674 192.434 47.9221 192.136C47.7715 191.833 47.5943 191.54 47.3906 191.255C47.1831 190.976 46.9622 190.715 46.7279 190.472C46.4936 190.23 46.2631 190.027 46.0366 189.862C45.2462 189.288 44.5631 188.994 43.9873 188.978C43.4062 188.959 42.934 189.199 42.5707 189.7C42.3757 189.968 42.2733 190.248 42.2635 190.539C42.2447 190.831 42.2919 191.142 42.4052 191.474C42.5184 191.806 42.6796 192.16 42.8887 192.537C43.0887 192.915 43.3085 193.316 43.5482 193.739C43.7837 194.224 43.991 194.692 44.17 195.144C44.3489 195.596 44.4705 196.038 44.5346 196.47C44.5895 196.905 44.5715 197.334 44.4805 197.759C44.3843 198.179 44.1793 198.606 43.8658 199.038C43.4795 199.57 43.0264 199.945 42.5063 200.163C41.9771 200.382 41.4258 200.477 40.8523 200.447C40.2698 200.418 39.6842 200.283 39.0957 200.041C38.5034 199.804 37.9464 199.496 37.4248 199.117C36.2393 198.257 35.4727 197.495 35.125 196.833L36.473 194.976C36.7793 195.906 37.4383 196.738 38.4499 197.472C38.7292 197.675 39.0275 197.851 39.345 198.001C39.6573 198.147 39.968 198.24 40.2773 198.28C40.5812 198.315 40.8706 198.288 41.1452 198.198C41.4199 198.107 41.6547 197.928 41.8497 197.659C42.0333 197.406 42.1393 197.149 42.1678 196.888C42.1962 196.628 42.1658 196.348 42.0765 196.05C41.9819 195.748 41.8432 195.418 41.6605 195.06C41.4687 194.704 41.2417 194.302 40.9794 193.854C40.7334 193.362 40.5187 192.876 40.3354 192.397C40.1468 191.914 40.0202 191.44 39.9556 190.975C39.8858 190.506 39.8968 190.048 39.9887 189.599C40.0716 189.153 40.2679 188.716 40.5776 188.289C40.9945 187.715 41.4622 187.314 41.9808 187.087C42.4995 186.861 43.0463 186.767 43.6212 186.806C44.1908 186.841 44.7713 186.989 45.3627 187.249C45.9541 187.51 46.5343 187.846 47.1034 188.259C47.293 188.397 47.516 188.583 47.7724 188.817C48.0272 189.042 48.2785 189.289 48.5262 189.557C48.7778 189.82 49.004 190.085 49.2048 190.352C49.4056 190.618 49.5487 190.859 49.6341 191.073Z" fill="#191716"/>
<defs>
<clipPath id="clip0_1126_264">
<rect width="30" height="30" fill="white" transform="translate(78 116.778) rotate(-31.7308)"/>
</clipPath>
</defs>
</svg>
